<?xml version="1.0" encoding="UTF-8"?>
<svg xmlns="http://www.w3.org/2000/svg" xmlns:xlink="http://www.w3.org/1999/xlink" width="41.25pt" height="41.250001pt" viewBox="0 0 41.25 41.250001" version="1.2">
<defs>
<clipPath id="clip1">
  <path d="M 0 3.089844 L 9 3.089844 L 9 37.710938 L 0 37.710938 Z M 0 3.089844 "/>
</clipPath>
<clipPath id="clip2">
  <path d="M 31 3.089844 L 40.511719 3.089844 L 40.511719 37.710938 L 31 37.710938 Z M 31 3.089844 "/>
</clipPath>
</defs>
<g id="surface1">
<g clip-path="url(#clip1)" clip-rule="nonzero">
<path style=" stroke:none;fill-rule:nonzero;fill:rgb(52.159119%,7.449341%,98.429871%);fill-opacity:1;" d="M 7.164062 37.691406 C 7.15625 37.691406 7.148438 37.691406 7.140625 37.691406 C 6.023438 37.671875 4.855469 37.460938 3.871094 36.085938 C 3.066406 34.964844 2.875 33.640625 2.800781 32.609375 C 2.683594 31.035156 2.78125 29.472656 2.871094 27.964844 C 2.949219 26.71875 3.023438 25.539062 2.984375 24.355469 C 2.960938 23.636719 2.890625 22.824219 2.550781 22.214844 C 2.285156 21.742188 1.800781 21.414062 1.402344 21.433594 C 1.234375 21.441406 1.070312 21.417969 0.914062 21.363281 C 0.753906 21.304688 0.613281 21.222656 0.484375 21.109375 C 0.359375 20.996094 0.261719 20.863281 0.183594 20.710938 C 0.109375 20.558594 0.0664062 20.398438 0.0546875 20.230469 C 0.0429688 20.0625 0.0625 19.894531 0.113281 19.734375 C 0.167969 19.574219 0.246094 19.425781 0.355469 19.296875 C 0.464844 19.167969 0.589844 19.0625 0.742188 18.984375 C 0.890625 18.90625 1.046875 18.859375 1.214844 18.839844 C 1.898438 18.773438 2.464844 18.128906 2.726562 17.515625 C 3.085938 16.675781 3.121094 15.632812 3.15625 14.621094 L 3.390625 7.652344 C 3.417969 6.929688 3.449219 5.933594 3.953125 5.035156 C 4.535156 3.984375 5.851562 3.144531 7.230469 3.570312 C 7.390625 3.621094 7.539062 3.699219 7.667969 3.808594 C 7.800781 3.917969 7.90625 4.046875 7.988281 4.199219 C 8.066406 4.351562 8.117188 4.511719 8.132812 4.683594 C 8.148438 4.851562 8.132812 5.019531 8.085938 5.183594 C 8.035156 5.347656 7.960938 5.496094 7.851562 5.632812 C 7.746094 5.765625 7.617188 5.871094 7.46875 5.953125 C 7.316406 6.035156 7.160156 6.085938 6.988281 6.105469 C 6.820312 6.125 6.65625 6.109375 6.492188 6.0625 C 6.363281 6.109375 6.269531 6.1875 6.199219 6.308594 C 6.007812 6.65625 5.988281 7.207031 5.96875 7.742188 L 5.734375 14.710938 C 5.691406 15.902344 5.648438 17.253906 5.097656 18.546875 C 4.863281 19.101562 4.539062 19.601562 4.132812 20.042969 C 4.390625 20.3125 4.613281 20.609375 4.792969 20.933594 C 5.410156 22.035156 5.527344 23.238281 5.5625 24.269531 C 5.605469 25.574219 5.523438 26.871094 5.449219 28.128906 C 5.355469 29.613281 5.269531 31.019531 5.371094 32.417969 C 5.421875 33.105469 5.535156 33.96875 5.960938 34.5625 C 6.234375 34.941406 6.398438 35.074219 7.1875 35.089844 C 7.355469 35.09375 7.519531 35.128906 7.675781 35.199219 C 7.832031 35.265625 7.96875 35.359375 8.089844 35.484375 C 8.207031 35.605469 8.296875 35.746094 8.359375 35.90625 C 8.425781 36.066406 8.453125 36.230469 8.453125 36.402344 C 8.453125 36.574219 8.417969 36.738281 8.351562 36.898438 C 8.285156 37.054688 8.191406 37.195312 8.070312 37.316406 C 7.949219 37.433594 7.8125 37.527344 7.65625 37.59375 C 7.496094 37.660156 7.332031 37.691406 7.164062 37.691406 Z M 7.164062 37.691406 "/>
</g>
<g clip-path="url(#clip2)" clip-rule="nonzero">
<path style=" stroke:none;fill-rule:nonzero;fill:rgb(52.159119%,7.449341%,98.429871%);fill-opacity:1;" d="M 32.960938 37.613281 C 32.941406 37.613281 32.917969 37.613281 32.898438 37.613281 C 32.726562 37.613281 32.5625 37.578125 32.40625 37.511719 C 32.25 37.445312 32.109375 37.351562 31.992188 37.230469 C 31.871094 37.105469 31.777344 36.964844 31.714844 36.808594 C 31.648438 36.648438 31.617188 36.480469 31.617188 36.308594 C 31.617188 36.136719 31.652344 35.972656 31.714844 35.8125 C 31.78125 35.652344 31.875 35.515625 31.996094 35.394531 C 32.117188 35.269531 32.257812 35.175781 32.414062 35.113281 C 32.570312 35.046875 32.734375 35.011719 32.90625 35.011719 C 32.921875 35.011719 32.941406 35.011719 32.960938 35.011719 C 33.710938 35.011719 33.878906 34.882812 34.160156 34.515625 C 34.601562 33.929688 34.734375 33.070312 34.804688 32.382812 C 34.945312 30.988281 34.898438 29.582031 34.847656 28.09375 C 34.804688 26.835938 34.757812 25.539062 34.835938 24.234375 C 34.898438 23.203125 35.046875 22.003906 35.695312 20.921875 C 35.882812 20.601562 36.113281 20.308594 36.378906 20.046875 C 35.984375 19.59375 35.675781 19.085938 35.457031 18.523438 C 34.941406 17.21875 34.929688 15.867188 34.921875 14.675781 L 34.875 7.703125 C 34.871094 7.167969 34.867188 6.613281 34.683594 6.261719 C 34.621094 6.144531 34.527344 6.0625 34.402344 6.011719 C 34.238281 6.054688 34.070312 6.066406 33.902344 6.042969 C 33.734375 6.019531 33.578125 5.964844 33.429688 5.878906 C 33.28125 5.792969 33.15625 5.683594 33.054688 5.546875 C 32.949219 5.410156 32.875 5.261719 32.832031 5.09375 C 32.785156 4.929688 32.777344 4.761719 32.796875 4.589844 C 32.816406 4.421875 32.871094 4.261719 32.953125 4.113281 C 33.039062 3.964844 33.148438 3.835938 33.28125 3.730469 C 33.414062 3.625 33.566406 3.546875 33.726562 3.503906 C 35.121094 3.109375 36.410156 3.984375 36.96875 5.050781 C 37.445312 5.964844 37.449219 6.957031 37.457031 7.683594 L 37.503906 14.65625 C 37.511719 15.667969 37.515625 16.710938 37.851562 17.5625 C 38.097656 18.175781 38.644531 18.835938 39.328125 18.921875 C 39.492188 18.941406 39.648438 18.992188 39.796875 19.078125 C 39.945312 19.160156 40.070312 19.265625 40.175781 19.398438 C 40.28125 19.53125 40.355469 19.679688 40.402344 19.84375 C 40.453125 20.003906 40.46875 20.171875 40.449219 20.339844 C 40.433594 20.507812 40.386719 20.667969 40.308594 20.816406 C 40.230469 20.96875 40.125 21.097656 39.996094 21.207031 C 39.871094 21.316406 39.726562 21.398438 39.566406 21.449219 C 39.40625 21.5 39.242188 21.523438 39.074219 21.507812 C 38.675781 21.480469 38.183594 21.796875 37.902344 22.261719 C 37.546875 22.863281 37.453125 23.675781 37.410156 24.390625 C 37.339844 25.570312 37.382812 26.753906 37.425781 28.003906 C 37.476562 29.511719 37.53125 31.074219 37.371094 32.648438 C 37.269531 33.675781 37.042969 34.992188 36.207031 36.09375 C 35.203125 37.417969 34.054688 37.613281 32.960938 37.613281 Z M 32.960938 37.613281 "/>
</g>
<path style=" stroke:none;fill-rule:nonzero;fill:rgb(100%,83.529663%,17.649841%);fill-opacity:1;" d="M 8.375 8.523438 L 18 8.523438 C 18.144531 8.523438 18.265625 8.574219 18.363281 8.675781 C 18.464844 8.777344 18.515625 8.902344 18.515625 9.046875 L 18.515625 10.808594 C 18.515625 10.953125 18.464844 11.074219 18.363281 11.175781 C 18.265625 11.277344 18.144531 11.328125 18 11.328125 L 8.375 11.328125 C 8.230469 11.328125 8.109375 11.277344 8.007812 11.175781 C 7.90625 11.074219 7.859375 10.953125 7.859375 10.808594 L 7.859375 9.046875 C 7.859375 8.902344 7.90625 8.777344 8.007812 8.675781 C 8.109375 8.574219 8.230469 8.523438 8.375 8.523438 Z M 8.375 8.523438 "/>
<path style=" stroke:none;fill-rule:nonzero;fill:rgb(100%,44.709778%,38.42926%);fill-opacity:1;" d="M 16.886719 13.800781 L 31.753906 13.800781 C 31.898438 13.800781 32.019531 13.851562 32.121094 13.953125 C 32.21875 14.054688 32.269531 14.179688 32.269531 14.324219 L 32.269531 16.085938 C 32.269531 16.230469 32.21875 16.351562 32.121094 16.453125 C 32.019531 16.554688 31.898438 16.605469 31.753906 16.605469 L 16.886719 16.605469 C 16.742188 16.605469 16.621094 16.554688 16.523438 16.453125 C 16.421875 16.351562 16.371094 16.230469 16.371094 16.085938 L 16.371094 14.324219 C 16.371094 14.179688 16.421875 14.054688 16.523438 13.953125 C 16.621094 13.851562 16.742188 13.800781 16.886719 13.800781 Z M 16.886719 13.800781 "/>
<path style=" stroke:none;fill-rule:nonzero;fill:rgb(10.5896%,73.728943%,99.609375%);fill-opacity:1;" d="M 8.375 13.800781 L 13.496094 13.800781 C 13.640625 13.800781 13.761719 13.851562 13.863281 13.953125 C 13.964844 14.054688 14.011719 14.179688 14.011719 14.324219 L 14.011719 16.085938 C 14.011719 16.230469 13.964844 16.351562 13.863281 16.453125 C 13.761719 16.554688 13.640625 16.605469 13.496094 16.605469 L 8.375 16.605469 C 8.230469 16.605469 8.109375 16.554688 8.007812 16.453125 C 7.90625 16.351562 7.859375 16.230469 7.859375 16.085938 L 7.859375 14.324219 C 7.859375 14.179688 7.90625 14.054688 8.007812 13.953125 C 8.109375 13.851562 8.230469 13.800781 8.375 13.800781 Z M 8.375 13.800781 "/>
<path style=" stroke:none;fill-rule:nonzero;fill:rgb(10.5896%,73.728943%,99.609375%);fill-opacity:1;" d="M 21.390625 8.523438 L 25.914062 8.523438 C 26.058594 8.523438 26.179688 8.574219 26.28125 8.675781 C 26.378906 8.777344 26.429688 8.902344 26.429688 9.046875 L 26.429688 10.808594 C 26.429688 10.953125 26.378906 11.074219 26.28125 11.175781 C 26.179688 11.277344 26.058594 11.328125 25.914062 11.328125 L 21.390625 11.328125 C 21.246094 11.328125 21.125 11.277344 21.023438 11.175781 C 20.921875 11.074219 20.875 10.953125 20.875 10.808594 L 20.875 9.046875 C 20.875 8.902344 20.921875 8.777344 21.023438 8.675781 C 21.125 8.574219 21.246094 8.523438 21.390625 8.523438 Z M 21.390625 8.523438 "/>
<path style=" stroke:none;fill-rule:nonzero;fill:rgb(100%,44.709778%,38.42926%);fill-opacity:1;" d="M 29.269531 8.523438 L 31.753906 8.523438 C 31.898438 8.523438 32.019531 8.574219 32.121094 8.675781 C 32.21875 8.777344 32.269531 8.902344 32.269531 9.046875 L 32.269531 10.808594 C 32.269531 10.953125 32.21875 11.074219 32.121094 11.175781 C 32.019531 11.277344 31.898438 11.328125 31.753906 11.328125 L 29.269531 11.328125 C 29.125 11.328125 29.003906 11.277344 28.902344 11.175781 C 28.804688 11.074219 28.753906 10.953125 28.753906 10.808594 L 28.753906 9.046875 C 28.753906 8.902344 28.804688 8.777344 28.902344 8.675781 C 29.003906 8.574219 29.125 8.523438 29.269531 8.523438 Z M 29.269531 8.523438 "/>
<path style=" stroke:none;fill-rule:nonzero;fill:rgb(100%,83.529663%,17.649841%);fill-opacity:1;" d="M 8.375 24.203125 L 18 24.203125 C 18.144531 24.203125 18.265625 24.253906 18.363281 24.355469 C 18.464844 24.457031 18.515625 24.578125 18.515625 24.722656 L 18.515625 26.484375 C 18.515625 26.628906 18.464844 26.753906 18.363281 26.855469 C 18.265625 26.957031 18.144531 27.007812 18 27.007812 L 8.375 27.007812 C 8.230469 27.007812 8.109375 26.957031 8.007812 26.855469 C 7.90625 26.753906 7.859375 26.628906 7.859375 26.484375 L 7.859375 24.722656 C 7.859375 24.578125 7.90625 24.457031 8.007812 24.355469 C 8.109375 24.253906 8.230469 24.203125 8.375 24.203125 Z M 8.375 24.203125 "/>
<path style=" stroke:none;fill-rule:nonzero;fill:rgb(100%,44.709778%,38.42926%);fill-opacity:1;" d="M 16.886719 29.480469 L 31.753906 29.480469 C 31.898438 29.480469 32.019531 29.53125 32.121094 29.632812 C 32.21875 29.734375 32.269531 29.855469 32.269531 30 L 32.269531 31.761719 C 32.269531 31.90625 32.21875 32.03125 32.121094 32.132812 C 32.019531 32.234375 31.898438 32.285156 31.753906 32.285156 L 16.886719 32.285156 C 16.742188 32.285156 16.621094 32.234375 16.523438 32.132812 C 16.421875 32.03125 16.371094 31.90625 16.371094 31.761719 L 16.371094 30 C 16.371094 29.855469 16.421875 29.734375 16.523438 29.632812 C 16.621094 29.53125 16.742188 29.480469 16.886719 29.480469 Z M 16.886719 29.480469 "/>
<path style=" stroke:none;fill-rule:nonzero;fill:rgb(10.5896%,73.728943%,99.609375%);fill-opacity:1;" d="M 8.375 29.480469 L 13.496094 29.480469 C 13.640625 29.480469 13.761719 29.53125 13.863281 29.632812 C 13.964844 29.734375 14.011719 29.855469 14.011719 30 L 14.011719 31.761719 C 14.011719 31.90625 13.964844 32.03125 13.863281 32.132812 C 13.761719 32.234375 13.640625 32.285156 13.496094 32.285156 L 8.375 32.285156 C 8.230469 32.285156 8.109375 32.234375 8.007812 32.132812 C 7.90625 32.03125 7.859375 31.90625 7.859375 31.761719 L 7.859375 30 C 7.859375 29.855469 7.90625 29.734375 8.007812 29.632812 C 8.109375 29.53125 8.230469 29.480469 8.375 29.480469 Z M 8.375 29.480469 "/>
<path style=" stroke:none;fill-rule:nonzero;fill:rgb(100%,83.529663%,17.649841%);fill-opacity:1;" d="M 21.390625 24.203125 L 25.914062 24.203125 C 26.058594 24.203125 26.179688 24.253906 26.28125 24.355469 C 26.378906 24.457031 26.429688 24.578125 26.429688 24.722656 L 26.429688 26.484375 C 26.429688 26.628906 26.378906 26.753906 26.28125 26.855469 C 26.179688 26.957031 26.058594 27.007812 25.914062 27.007812 L 21.390625 27.007812 C 21.246094 27.007812 21.125 26.957031 21.023438 26.855469 C 20.921875 26.753906 20.875 26.628906 20.875 26.484375 L 20.875 24.722656 C 20.875 24.578125 20.921875 24.457031 21.023438 24.355469 C 21.125 24.253906 21.246094 24.203125 21.390625 24.203125 Z M 21.390625 24.203125 "/>
<path style=" stroke:none;fill-rule:nonzero;fill:rgb(10.5896%,73.728943%,99.609375%);fill-opacity:1;" d="M 29.269531 24.203125 L 31.753906 24.203125 C 31.898438 24.203125 32.019531 24.253906 32.121094 24.355469 C 32.21875 24.457031 32.269531 24.578125 32.269531 24.722656 L 32.269531 26.484375 C 32.269531 26.628906 32.21875 26.753906 32.121094 26.855469 C 32.019531 26.957031 31.898438 27.007812 31.753906 27.007812 L 29.269531 27.007812 C 29.125 27.007812 29.003906 26.957031 28.902344 26.855469 C 28.804688 26.753906 28.753906 26.628906 28.753906 26.484375 L 28.753906 24.722656 C 28.753906 24.578125 28.804688 24.457031 28.902344 24.355469 C 29.003906 24.253906 29.125 24.203125 29.269531 24.203125 Z M 29.269531 24.203125 "/>
<path style=" stroke:none;fill-rule:nonzero;fill:rgb(100%,44.709778%,38.42926%);fill-opacity:1;" d="M 8.375 19.101562 L 14.675781 19.101562 C 14.820312 19.101562 14.941406 19.152344 15.039062 19.253906 C 15.140625 19.355469 15.191406 19.476562 15.191406 19.621094 L 15.191406 21.386719 C 15.191406 21.53125 15.140625 21.652344 15.039062 21.753906 C 14.941406 21.855469 14.820312 21.90625 14.675781 21.90625 L 8.375 21.90625 C 8.230469 21.90625 8.109375 21.855469 8.007812 21.753906 C 7.90625 21.652344 7.859375 21.53125 7.859375 21.386719 L 7.859375 19.621094 C 7.859375 19.476562 7.90625 19.355469 8.007812 19.253906 C 8.109375 19.152344 8.230469 19.101562 8.375 19.101562 Z M 8.375 19.101562 "/>
<path style=" stroke:none;fill-rule:nonzero;fill:rgb(10.5896%,73.728943%,99.609375%);fill-opacity:1;" d="M 25.207031 19.101562 L 31.507812 19.101562 C 31.652344 19.101562 31.773438 19.152344 31.875 19.253906 C 31.972656 19.355469 32.023438 19.476562 32.023438 19.621094 L 32.023438 21.386719 C 32.023438 21.53125 31.972656 21.652344 31.875 21.753906 C 31.773438 21.855469 31.652344 21.90625 31.507812 21.90625 L 25.207031 21.90625 C 25.0625 21.90625 24.941406 21.855469 24.839844 21.753906 C 24.738281 21.652344 24.691406 21.53125 24.691406 21.386719 L 24.691406 19.621094 C 24.691406 19.476562 24.738281 19.355469 24.839844 19.253906 C 24.941406 19.152344 25.0625 19.101562 25.207031 19.101562 Z M 25.207031 19.101562 "/>
<path style=" stroke:none;fill-rule:nonzero;fill:rgb(100%,83.529663%,17.649841%);fill-opacity:1;" d="M 18.066406 19.101562 L 21.816406 19.101562 C 21.960938 19.101562 22.082031 19.152344 22.183594 19.253906 C 22.28125 19.355469 22.332031 19.476562 22.332031 19.621094 L 22.332031 21.386719 C 22.332031 21.53125 22.28125 21.652344 22.183594 21.753906 C 22.082031 21.855469 21.960938 21.90625 21.816406 21.90625 L 18.066406 21.90625 C 17.921875 21.90625 17.800781 21.855469 17.699219 21.753906 C 17.597656 21.652344 17.550781 21.53125 17.550781 21.386719 L 17.550781 19.621094 C 17.550781 19.476562 17.597656 19.355469 17.699219 19.253906 C 17.800781 19.152344 17.921875 19.101562 18.066406 19.101562 Z M 18.066406 19.101562 "/>
</g>
</svg>
