<svg xmlns="http://www.w3.org/2000/svg" xmlns:xlink="http://www.w3.org/1999/xlink" viewBox="0 0 305.22 340"><defs><linearGradient id="a" x1="459.92" y1="666" x2="-427.44" y2="-221.36" gradientTransform="matrix(0.25, 0, 0, -0.25, 144.75, 273.25)" gradientUnits="userSpaceOnUse"><stop offset="0" stop-color="#00a0ff"/><stop offset="0.01" stop-color="#00a1ff"/><stop offset="0.26" stop-color="#00beff"/><stop offset="0.51" stop-color="#00d2ff"/><stop offset="0.76" stop-color="#00dfff"/><stop offset="1" stop-color="#00e3ff"/></linearGradient><linearGradient id="b" x1="1096.23" y1="68.96" x2="-183.17" y2="68.96" gradientTransform="matrix(0.25, 0, 0, -0.25, 144.75, 273.25)" gradientUnits="userSpaceOnUse"><stop offset="0" stop-color="#ffe000"/><stop offset="0.41" stop-color="#ffbd00"/><stop offset="0.78" stop-color="orange"/><stop offset="1" stop-color="#ff9c00"/></linearGradient><linearGradient id="c" x1="619.97" y1="-52.37" x2="-583.36" y2="-1255.7" gradientTransform="matrix(0.25, 0, 0, -0.25, 144.75, 273.25)" gradientUnits="userSpaceOnUse"><stop offset="0" stop-color="#ff3a44"/><stop offset="1" stop-color="#c31162"/></linearGradient><linearGradient id="d" x1="-306.89" y1="1117.23" x2="230.44" y2="579.9" gradientTransform="matrix(0.25, 0, 0, -0.25, 144.75, 273.25)" gradientUnits="userSpaceOnUse"><stop offset="0" stop-color="#32a071"/><stop offset="0.07" stop-color="#2da771"/><stop offset="0.48" stop-color="#15cf74"/><stop offset="0.8" stop-color="#06e775"/><stop offset="1" stop-color="#00f076"/></linearGradient></defs><title>play-store-logo</title><path d="M109.51,91.26c-3.84,4.08-6.12,10.37-6.12,18.56V402.16c0,8.19,2.28,14.51,6.12,18.56l1,.95L274.26,257.93v-3.86L110.48,90.29Z" transform="translate(-103.39 -86)" style="fill:url(#a)"/><path d="M328.83,312.54l-54.57-54.61v-3.86l54.59-54.59,1.24.7,64.68,36.74c18.47,10.49,18.47,27.66,0,38.17l-64.68,36.74Z" transform="translate(-103.39 -86)" style="fill:url(#b)"/><path d="M330.08,311.83,274.26,256,109.51,420.74c6.09,6.45,16.15,7.24,27.47.81l193.1-109.73" transform="translate(-103.39 -86)" style="fill:url(#c)"/><path d="M330.08,200.17,137,90.45c-11.32-6.43-21.38-5.64-27.47.81L274.26,256Z" transform="translate(-103.39 -86)" style="fill:url(#d)"/><path d="M328.85,310.61,137,419.62c-10.74,6.1-20.32,5.7-26.48.14l-1,1,1,.95c6.16,5.54,15.74,6,26.48-.14l193.1-109.73Z" transform="translate(-103.39 -86)" style="opacity:0.20000000298023224;isolation:isolate"/><path d="M109.51,418.81c-3.84-4.08-6.12-10.39-6.12-18.56v1.93c0,8.19,2.28,14.51,6.12,18.56l1-1ZM394.76,273.15l-65.91,37.46,1.24,1.24,64.68-36.74c9.23-5.25,13.85-12.17,13.85-19.09C407.84,262.26,403.13,268.4,394.76,273.15Z" transform="translate(-103.39 -86)" style="opacity:0.11999999731779099;isolation:isolate"/><path d="M137,92.38,394.76,238.85c8.38,4.75,13.08,10.9,13.85,17.15,0-6.92-4.62-13.83-13.85-19.09L137,90.45c-18.49-10.49-33.59-1.78-33.59,19.4v1.93C103.39,90.6,118.49,81.89,137,92.38Z" transform="translate(-103.39 -86)" style="fill:#fff;opacity:0.25;isolation:isolate"/></svg>